<svg width="384" height="460" viewBox="0 0 384 460" fill="none" xmlns="http://www.w3.org/2000/svg">
<g filter="url(#filter0_b_1_202)">
<g filter="url(#filter1_b_1_202)">
<path d="M377.332 387.786C381.518 384.78 384 379.942 384 374.789L384 16C384 7.16345 376.837 0 368 0L16 0C7.16345 0 0 7.16345 0 16L0 444C0 452.837 7.16345 460 16 460L271.603 460C274.951 460 278.215 458.95 280.934 456.997L377.332 387.786Z" fill="white" fill-opacity="0.05"/>
<path d="M383.5 374.789C383.5 379.781 381.095 384.468 377.04 387.38L280.643 456.591C278.008 458.483 274.846 459.5 271.603 459.5L16 459.5C7.43961 459.5 0.5 452.56 0.5 444L0.5 16C0.5 7.43961 7.43961 0.5 16 0.5L368 0.5C376.56 0.5 383.5 7.43961 383.5 16L383.5 374.789Z" stroke="url(#paint0_linear_1_202)" stroke-opacity="0.7"/>
</g>
<path d="M20.998 28.1189C20.998 27.1669 21.2173 26.3129 21.656 25.5569C22.104 24.8009 22.706 24.2129 23.462 23.7929C24.2273 23.3635 25.0627 23.1489 25.968 23.1489C27.004 23.1489 27.9233 23.4055 28.726 23.9189C29.538 24.4229 30.126 25.1415 30.49 26.0749H28.572C28.32 25.5615 27.97 25.1789 27.522 24.9269C27.074 24.6749 26.556 24.5489 25.968 24.5489C25.324 24.5489 24.75 24.6935 24.246 24.9829C23.742 25.2722 23.3453 25.6875 23.056 26.2289C22.776 26.7702 22.636 27.4002 22.636 28.1189C22.636 28.8375 22.776 29.4675 23.056 30.0089C23.3453 30.5502 23.742 30.9702 24.246 31.2689C24.75 31.5582 25.324 31.7029 25.968 31.7029C26.556 31.7029 27.074 31.5769 27.522 31.3249C27.97 31.0729 28.32 30.6902 28.572 30.1769H30.49C30.126 31.1102 29.538 31.8289 28.726 32.3329C27.9233 32.8369 27.004 33.0889 25.968 33.0889C25.0533 33.0889 24.218 32.8789 23.462 32.4589C22.706 32.0295 22.104 31.4369 21.656 30.6809C21.2173 29.9249 20.998 29.0709 20.998 28.1189ZM39.3441 25.2909V33.0049H37.7481V32.0949C37.4961 32.4122 37.1648 32.6642 36.7541 32.8509C36.3528 33.0282 35.9235 33.1169 35.4661 33.1169C34.8595 33.1169 34.3135 32.9909 33.8281 32.7389C33.3521 32.4869 32.9741 32.1135 32.6941 31.6189C32.4235 31.1242 32.2881 30.5269 32.2881 29.8269V25.2909H33.8701V29.5889C33.8701 30.2795 34.0428 30.8115 34.3881 31.1849C34.7335 31.5489 35.2048 31.7309 35.8021 31.7309C36.3995 31.7309 36.8708 31.5489 37.2161 31.1849C37.5708 30.8115 37.7481 30.2795 37.7481 29.5889V25.2909H39.3441ZM43.0459 26.4109C43.2793 26.0189 43.5873 25.7155 43.9699 25.5009C44.3619 25.2769 44.8239 25.1649 45.3559 25.1649V26.8169H44.9499C44.3246 26.8169 43.8486 26.9755 43.5219 27.2929C43.2046 27.6102 43.0459 28.1609 43.0459 28.9449V33.0049H41.4499V25.2909H43.0459V26.4109ZM48.419 26.4109C48.6523 26.0189 48.9603 25.7155 49.343 25.5009C49.735 25.2769 50.197 25.1649 50.729 25.1649V26.8169H50.323C49.6976 26.8169 49.2216 26.9755 48.895 27.2929C48.5776 27.6102 48.419 28.1609 48.419 28.9449V33.0049H46.823V25.2909H48.419V26.4109ZM59.266 28.9589C59.266 29.2482 59.2474 29.5095 59.21 29.7429H53.316C53.3627 30.3589 53.5914 30.8535 54.002 31.2269C54.4127 31.6002 54.9167 31.7869 55.514 31.7869C56.3727 31.7869 56.9794 31.4275 57.334 30.7089H59.056C58.8227 31.4182 58.398 32.0015 57.782 32.4589C57.1754 32.9069 56.4194 33.1309 55.514 33.1309C54.7767 33.1309 54.114 32.9675 53.526 32.6409C52.9474 32.3049 52.49 31.8382 52.154 31.2409C51.8274 30.6342 51.664 29.9342 51.664 29.1409C51.664 28.3475 51.8227 27.6522 52.14 27.0549C52.4667 26.4482 52.9194 25.9815 53.498 25.6549C54.086 25.3282 54.758 25.1649 55.514 25.1649C56.242 25.1649 56.8907 25.3235 57.46 25.6409C58.0294 25.9582 58.4727 26.4062 58.79 26.9849C59.1074 27.5542 59.266 28.2122 59.266 28.9589ZM57.6 28.4549C57.5907 27.8669 57.3807 27.3955 56.97 27.0409C56.5594 26.6862 56.0507 26.5089 55.444 26.5089C54.8934 26.5089 54.422 26.6862 54.03 27.0409C53.638 27.3862 53.4047 27.8575 53.33 28.4549H57.6ZM64.7287 25.1649C65.3353 25.1649 65.8767 25.2909 66.3527 25.5429C66.838 25.7949 67.216 26.1682 67.4867 26.6629C67.7573 27.1575 67.8927 27.7549 67.8927 28.4549V33.0049H66.3107V28.6929C66.3107 28.0022 66.138 27.4749 65.7927 27.1109C65.4473 26.7375 64.976 26.5509 64.3787 26.5509C63.7813 26.5509 63.3053 26.7375 62.9507 27.1109C62.6053 27.4749 62.4327 28.0022 62.4327 28.6929V33.0049H60.8367V25.2909H62.4327V26.1729C62.694 25.8555 63.0253 25.6082 63.4267 25.4309C63.8373 25.2535 64.2713 25.1649 64.7287 25.1649ZM71.7904 26.5929V30.8629C71.7904 31.1522 71.8558 31.3622 71.9864 31.4929C72.1264 31.6142 72.3598 31.6749 72.6864 31.6749H73.6664V33.0049H72.4064C71.6878 33.0049 71.1371 32.8369 70.7544 32.5009C70.3718 32.1649 70.1804 31.6189 70.1804 30.8629V26.5929H69.2704V25.2909H70.1804V23.3729H71.7904V25.2909H73.6664V26.5929H71.7904ZM80.3702 26.4389C80.6408 26.0655 81.0095 25.7622 81.4762 25.5289C81.9522 25.2862 82.4795 25.1649 83.0582 25.1649C83.7395 25.1649 84.3555 25.3282 84.9062 25.6549C85.4568 25.9815 85.8908 26.4482 86.2082 27.0549C86.5255 27.6522 86.6842 28.3382 86.6842 29.1129C86.6842 29.8875 86.5255 30.5829 86.2082 31.1989C85.8908 31.8055 85.4522 32.2815 84.8922 32.6269C84.3415 32.9629 83.7302 33.1309 83.0582 33.1309C82.4608 33.1309 81.9288 33.0142 81.4622 32.7809C81.0048 32.5475 80.6408 32.2489 80.3702 31.8849V33.0049H78.7742V22.6449H80.3702V26.4389ZM85.0602 29.1129C85.0602 28.5809 84.9482 28.1235 84.7242 27.7409C84.5095 27.3489 84.2202 27.0549 83.8562 26.8589C83.5015 26.6535 83.1188 26.5509 82.7082 26.5509C82.3068 26.5509 81.9242 26.6535 81.5602 26.8589C81.2055 27.0642 80.9162 27.3629 80.6922 27.7549C80.4775 28.1469 80.3702 28.6089 80.3702 29.1409C80.3702 29.6729 80.4775 30.1395 80.6922 30.5409C80.9162 30.9329 81.2055 31.2315 81.5602 31.4369C81.9242 31.6422 82.3068 31.7449 82.7082 31.7449C83.1188 31.7449 83.5015 31.6422 83.8562 31.4369C84.2202 31.2222 84.5095 30.9142 84.7242 30.5129C84.9482 30.1115 85.0602 29.6449 85.0602 29.1129ZM89.0744 24.2689C88.7851 24.2689 88.5424 24.1709 88.3464 23.9749C88.1504 23.7789 88.0524 23.5362 88.0524 23.2469C88.0524 22.9575 88.1504 22.7149 88.3464 22.5189C88.5424 22.3229 88.7851 22.2249 89.0744 22.2249C89.3544 22.2249 89.5924 22.3229 89.7884 22.5189C89.9844 22.7149 90.0824 22.9575 90.0824 23.2469C90.0824 23.5362 89.9844 23.7789 89.7884 23.9749C89.5924 24.1709 89.3544 24.2689 89.0744 24.2689ZM89.8584 25.2909V33.0049H88.2624V25.2909H89.8584ZM91.4218 29.1129C91.4218 28.3382 91.5805 27.6522 91.8978 27.0549C92.2245 26.4575 92.6632 25.9955 93.2138 25.6689C93.7738 25.3329 94.3945 25.1649 95.0758 25.1649C95.5798 25.1649 96.0745 25.2769 96.5598 25.5009C97.0545 25.7155 97.4465 26.0049 97.7358 26.3689V22.6449H99.3458V33.0049H97.7358V31.8429C97.4745 32.2162 97.1105 32.5242 96.6438 32.7669C96.1865 33.0095 95.6592 33.1309 95.0618 33.1309C94.3898 33.1309 93.7738 32.9629 93.2138 32.6269C92.6632 32.2815 92.2245 31.8055 91.8978 31.1989C91.5805 30.5829 91.4218 29.8875 91.4218 29.1129ZM97.7358 29.1409C97.7358 28.6089 97.6238 28.1469 97.3998 27.7549C97.1852 27.3629 96.9005 27.0642 96.5458 26.8589C96.1912 26.6535 95.8085 26.5509 95.3978 26.5509C94.9872 26.5509 94.6045 26.6535 94.2498 26.8589C93.8952 27.0549 93.6058 27.3489 93.3818 27.7409C93.1672 28.1235 93.0598 28.5809 93.0598 29.1129C93.0598 29.6449 93.1672 30.1115 93.3818 30.5129C93.6058 30.9142 93.8952 31.2222 94.2498 31.4369C94.6138 31.6422 94.9965 31.7449 95.3978 31.7449C95.8085 31.7449 96.1912 31.6422 96.5458 31.4369C96.9005 31.2315 97.1852 30.9329 97.3998 30.5409C97.6238 30.1395 97.7358 29.6729 97.7358 29.1409Z" fill="white"/>
<g clip-path="url(#clip0_1_202)">
<path d="M28.4857 58.2029L24.0453 56.0349L28.4817 62.0049L29.1482 61.1079V57.8784L28.4857 58.2029Z" fill="#15BFFD"/>
<path d="M28.4817 46.0049L23.3863 55.1478H33.5773L28.4817 46.0049Z" fill="#15BFFD"/>
<path d="M33.5773 55.1614L28.4817 46.0049V55.1614H33.5773Z" fill="#1286B0"/>
<path d="M26.9402 51.0829H27.9402V52.0829H26.9402V51.0829Z" fill="#F7F8FA"/>
<path d="M28.4817 52.6649L28.4617 52.6554L23.3867 55.1554H23.3913L28.4662 57.6554L28.4862 57.6459L29.1482 57.3219V52.9913L28.4817 52.6649Z" fill="#147EA5"/>
<path d="M26.9402 49.1914H27.9402V50.1914H26.9402V49.1914Z" fill="#F7F8FA"/>
<path d="M28.4857 58.2029L28.4817 62.0049L32.9213 56.0309L28.4857 58.2029Z" fill="#1286B0"/>
<path d="M33.5678 55.1554L28.4817 52.6649L28.4617 52.6554L28.4662 57.6554L28.4862 57.6459L33.5723 55.1554H33.5678Z" fill="#0E526A"/>
</g>
<path d="M41.4069 51.4129C41.4602 50.3462 41.8336 49.5249 42.5269 48.9489C43.2309 48.3622 44.1536 48.0689 45.2949 48.0689C46.0736 48.0689 46.7402 48.2075 47.2949 48.4849C47.8496 48.7515 48.2656 49.1195 48.5429 49.5889C48.8309 50.0475 48.9749 50.5702 48.9749 51.1569C48.9749 51.8289 48.7989 52.3995 48.4469 52.8689C48.1056 53.3275 47.6949 53.6369 47.2149 53.7969V53.8609C47.8336 54.0529 48.3136 54.3942 48.6549 54.8849C49.0069 55.3755 49.1829 56.0049 49.1829 56.7729C49.1829 57.4129 49.0336 57.9835 48.7349 58.4849C48.4469 58.9862 48.0149 59.3809 47.4389 59.6689C46.8736 59.9462 46.1909 60.0849 45.3909 60.0849C44.1856 60.0849 43.2042 59.7809 42.4469 59.1729C41.6896 58.5649 41.2896 57.6689 41.2469 56.4849H43.4229C43.4442 57.0075 43.6202 57.4289 43.9509 57.7489C44.2922 58.0582 44.7562 58.2129 45.3429 58.2129C45.8869 58.2129 46.3029 58.0635 46.5909 57.7649C46.8896 57.4555 47.0389 57.0609 47.0389 56.5809C47.0389 55.9409 46.8362 55.4822 46.4309 55.2049C46.0256 54.9275 45.3962 54.7889 44.5429 54.7889H44.0789V52.9489H44.5429C46.0576 52.9489 46.8149 52.4422 46.8149 51.4289C46.8149 50.9702 46.6762 50.6129 46.3989 50.3569C46.1322 50.1009 45.7429 49.9729 45.2309 49.9729C44.7296 49.9729 44.3402 50.1115 44.0629 50.3889C43.7962 50.6555 43.6416 50.9969 43.5989 51.4129H41.4069ZM52.201 60.1169C51.7957 60.1169 51.4597 59.9942 51.193 59.7489C50.937 59.4929 50.809 59.1782 50.809 58.8049C50.809 58.4315 50.937 58.1222 51.193 57.8769C51.4597 57.6209 51.7957 57.4929 52.201 57.4929C52.5957 57.4929 52.921 57.6209 53.177 57.8769C53.433 58.1222 53.561 58.4315 53.561 58.8049C53.561 59.1782 53.433 59.4929 53.177 59.7489C52.921 59.9942 52.5957 60.1169 52.201 60.1169ZM55.8133 57.4769C56.8373 56.6235 57.6533 55.9142 58.2613 55.3489C58.8693 54.7729 59.3759 54.1755 59.7813 53.5569C60.1866 52.9382 60.3893 52.3302 60.3893 51.7329C60.3893 51.1889 60.2613 50.7622 60.0053 50.4529C59.7493 50.1435 59.3546 49.9889 58.8213 49.9889C58.2879 49.9889 57.8773 50.1702 57.5893 50.5329C57.3013 50.8849 57.1519 51.3702 57.1413 51.9889H54.9653C55.0079 50.7089 55.3866 49.7382 56.1013 49.0769C56.8266 48.4155 57.7439 48.0849 58.8533 48.0849C60.0693 48.0849 61.0026 48.4102 61.6533 49.0609C62.3039 49.7009 62.6293 50.5489 62.6293 51.6049C62.6293 52.4369 62.4053 53.2315 61.9573 53.9889C61.5093 54.7462 60.9973 55.4075 60.4213 55.9729C59.8453 56.5275 59.0933 57.1995 58.1653 57.9889H62.8853V59.8449H54.9813V58.1809L55.8133 57.4769ZM70.6053 50.6449V53.4449H74.3653V55.2209H70.6053V58.1809H74.8453V60.0049H68.3653V48.8209H74.8453V50.6449H70.6053ZM84.4809 48.8369V50.6449H81.5049V60.0049H79.2649V50.6449H76.2889V48.8369H84.4809ZM95.3793 48.8369V60.0049H93.1393V55.2529H88.3553V60.0049H86.1153V48.8369H88.3553V53.4289H93.1393V48.8369H95.3793Z" fill="#15BFFD"/>
<rect x="252.52" y="18.0049" width="111" height="40" rx="20" fill="#15BFFD"/>
<path d="M273.668 44.0049V32.3685H278.031C278.925 32.3685 279.675 32.5352 280.281 32.8685C280.891 33.2019 281.351 33.6602 281.662 34.2435C281.976 34.8231 282.134 35.4822 282.134 36.2208C282.134 36.967 281.976 37.6299 281.662 38.2094C281.348 38.789 280.884 39.2454 280.27 39.5787C279.656 39.9083 278.901 40.0731 278.003 40.0731H275.111V38.3401H277.719C278.242 38.3401 278.67 38.2492 279.003 38.0674C279.336 37.8856 279.583 37.6356 279.742 37.3174C279.904 36.9992 279.986 36.6337 279.986 36.2208C279.986 35.8079 279.904 35.4443 279.742 35.1299C279.583 34.8155 279.334 34.5712 278.997 34.3969C278.664 34.2189 278.234 34.1299 277.708 34.1299H275.776V44.0049H273.668ZM285.931 32.3685V44.0049H283.874V32.3685H285.931ZM290.557 44.181C290.004 44.181 289.506 44.0825 289.063 43.8856C288.623 43.6848 288.275 43.3894 288.017 42.9992C287.763 42.609 287.636 42.128 287.636 41.556C287.636 41.0636 287.727 40.6564 287.909 40.3344C288.091 40.0125 288.339 39.7549 288.654 39.5617C288.968 39.3685 289.322 39.2227 289.716 39.1242C290.114 39.0219 290.525 38.9481 290.949 38.9026C291.46 38.8496 291.875 38.8022 292.193 38.7606C292.511 38.7151 292.743 38.6469 292.886 38.556C293.034 38.4613 293.108 38.3155 293.108 38.1185V38.0844C293.108 37.6564 292.981 37.325 292.727 37.0901C292.474 36.8553 292.108 36.7378 291.631 36.7378C291.127 36.7378 290.727 36.8477 290.432 37.0674C290.14 37.2871 289.943 37.5465 289.841 37.8458L287.921 37.5731C288.072 37.0428 288.322 36.5996 288.671 36.2435C289.019 35.8837 289.445 35.6147 289.949 35.4367C290.453 35.2549 291.01 35.164 291.619 35.164C292.04 35.164 292.458 35.2132 292.875 35.3117C293.292 35.4102 293.672 35.5731 294.017 35.8003C294.362 36.0238 294.638 36.3287 294.847 36.7151C295.059 37.1015 295.165 37.5844 295.165 38.164V44.0049H293.188V42.806H293.119C292.994 43.0484 292.818 43.2757 292.591 43.4878C292.368 43.6962 292.085 43.8647 291.744 43.9935C291.407 44.1185 291.011 44.181 290.557 44.181ZM291.091 42.6697C291.504 42.6697 291.862 42.5882 292.165 42.4253C292.468 42.2587 292.701 42.039 292.864 41.7662C293.03 41.4935 293.114 41.1962 293.114 40.8742V39.8458C293.049 39.8988 292.94 39.9481 292.784 39.9935C292.633 40.039 292.462 40.0787 292.273 40.1128C292.083 40.1469 291.896 40.1772 291.71 40.2037C291.525 40.2303 291.364 40.253 291.227 40.2719C290.921 40.3136 290.646 40.3818 290.404 40.4765C290.161 40.5712 289.97 40.7037 289.83 40.8742C289.69 41.0409 289.619 41.2568 289.619 41.5219C289.619 41.9007 289.758 42.1867 290.034 42.3799C290.311 42.5731 290.663 42.6697 291.091 42.6697ZM301.04 44.1753C300.169 44.1753 299.421 43.984 298.796 43.6015C298.174 43.2189 297.695 42.6905 297.358 42.0162C297.025 41.3382 296.858 40.5579 296.858 39.6753C296.858 38.789 297.029 38.0068 297.369 37.3287C297.71 36.6469 298.191 36.1166 298.813 35.7378C299.438 35.3553 300.176 35.164 301.029 35.164C301.737 35.164 302.364 35.2947 302.909 35.556C303.458 35.8136 303.896 36.1791 304.222 36.6526C304.547 37.1223 304.733 37.6715 304.779 38.3003H302.813C302.733 37.8799 302.544 37.5295 302.244 37.2492C301.949 36.9651 301.553 36.8231 301.057 36.8231C300.636 36.8231 300.267 36.9367 299.949 37.164C299.631 37.3875 299.383 37.7094 299.205 38.1299C299.03 38.5503 298.943 39.0541 298.943 39.6412C298.943 40.2359 299.03 40.7473 299.205 41.1753C299.379 41.5996 299.623 41.9272 299.938 42.1583C300.256 42.3856 300.629 42.4992 301.057 42.4992C301.36 42.4992 301.631 42.4424 301.869 42.3287C302.112 42.2113 302.315 42.0428 302.477 41.8231C302.64 41.6034 302.752 41.3363 302.813 41.0219H304.779C304.729 41.6394 304.547 42.1867 304.233 42.664C303.919 43.1375 303.491 43.5087 302.949 43.7776C302.407 44.0428 301.771 44.1753 301.04 44.1753ZM310.331 44.1753C309.456 44.1753 308.7 43.9935 308.064 43.6299C307.431 43.2625 306.945 42.7435 306.604 42.0731C306.263 41.3988 306.092 40.6053 306.092 39.6924C306.092 38.7947 306.263 38.0068 306.604 37.3287C306.949 36.6469 307.43 36.1166 308.047 35.7378C308.664 35.3553 309.39 35.164 310.223 35.164C310.761 35.164 311.269 35.2511 311.746 35.4253C312.227 35.5958 312.651 35.8609 313.019 36.2208C313.39 36.5806 313.681 37.039 313.894 37.5958C314.106 38.1488 314.212 38.8079 314.212 39.5731V40.2037H307.058V38.8174H312.24C312.236 38.4234 312.151 38.0731 311.985 37.7662C311.818 37.4556 311.585 37.2113 311.286 37.0333C310.99 36.8553 310.645 36.7662 310.252 36.7662C309.831 36.7662 309.462 36.8685 309.144 37.0731C308.825 37.2738 308.577 37.539 308.399 37.8685C308.225 38.1943 308.136 38.5522 308.132 38.9424V40.1526C308.132 40.6602 308.225 41.0958 308.411 41.4594C308.596 41.8193 308.856 42.0958 309.189 42.289C309.522 42.4784 309.913 42.5731 310.36 42.5731C310.659 42.5731 310.93 42.5314 311.172 42.4481C311.414 42.3609 311.625 42.234 311.803 42.0674C311.981 41.9007 312.115 41.6943 312.206 41.4481L314.127 41.664C314.005 42.1715 313.774 42.6147 313.433 42.9935C313.096 43.3685 312.664 43.6602 312.138 43.8685C311.611 44.0731 311.009 44.1753 310.331 44.1753ZM320.011 44.0049V32.3685H322.068V36.7208H322.154C322.26 36.5087 322.409 36.2833 322.602 36.0447C322.796 35.8022 323.057 35.5958 323.386 35.4253C323.716 35.2511 324.136 35.164 324.648 35.164C325.322 35.164 325.93 35.3363 326.472 35.681C327.017 36.0219 327.449 36.5276 327.767 37.1981C328.089 37.8647 328.25 38.6829 328.25 39.6526C328.25 40.6109 328.093 41.4253 327.779 42.0958C327.464 42.7662 327.036 43.2776 326.494 43.6299C325.953 43.9822 325.339 44.1583 324.654 44.1583C324.154 44.1583 323.739 44.075 323.409 43.9083C323.08 43.7416 322.815 43.5409 322.614 43.306C322.417 43.0674 322.263 42.842 322.154 42.6299H322.034V44.0049H320.011ZM322.029 39.6412C322.029 40.2056 322.108 40.7 322.267 41.1242C322.43 41.5484 322.663 41.8799 322.966 42.1185C323.273 42.3534 323.644 42.4708 324.08 42.4708C324.534 42.4708 324.915 42.3496 325.222 42.1072C325.529 41.8609 325.76 41.5257 325.915 41.1015C326.074 40.6734 326.154 40.1867 326.154 39.6412C326.154 39.0996 326.076 38.6185 325.921 38.1981C325.765 37.7776 325.534 37.4481 325.227 37.2094C324.921 36.9708 324.538 36.8515 324.08 36.8515C323.64 36.8515 323.267 36.967 322.96 37.1981C322.654 37.4291 322.421 37.753 322.261 38.1697C322.106 38.5863 322.029 39.0769 322.029 39.6412ZM329.999 44.0049V35.2776H332.056V44.0049H329.999ZM331.033 34.039C330.707 34.039 330.427 33.931 330.192 33.7151C329.957 33.4954 329.84 33.2322 329.84 32.9253C329.84 32.6147 329.957 32.3515 330.192 32.1356C330.427 31.9159 330.707 31.806 331.033 31.806C331.362 31.806 331.643 31.9159 331.874 32.1356C332.109 32.3515 332.226 32.6147 332.226 32.9253C332.226 33.2322 332.109 33.4954 331.874 33.7151C331.643 33.931 331.362 34.039 331.033 34.039ZM337.409 44.1583C336.724 44.1583 336.11 43.9822 335.568 43.6299C335.027 43.2776 334.599 42.7662 334.284 42.0958C333.97 41.4253 333.813 40.6109 333.813 39.6526C333.813 38.6829 333.972 37.8647 334.29 37.1981C334.612 36.5276 335.046 36.0219 335.591 35.681C336.136 35.3363 336.744 35.164 337.415 35.164C337.926 35.164 338.347 35.2511 338.676 35.4253C339.006 35.5958 339.267 35.8022 339.46 36.0447C339.654 36.2833 339.803 36.5087 339.909 36.7208H339.994V32.3685H342.057V44.0049H340.034V42.6299H339.909C339.803 42.842 339.65 43.0674 339.449 43.306C339.248 43.5409 338.983 43.7416 338.654 43.9083C338.324 44.075 337.909 44.1583 337.409 44.1583ZM337.983 42.4708C338.419 42.4708 338.79 42.3534 339.097 42.1185C339.404 41.8799 339.636 41.5484 339.796 41.1242C339.955 40.7 340.034 40.2056 340.034 39.6412C340.034 39.0769 339.955 38.5863 339.796 38.1697C339.64 37.753 339.409 37.4291 339.102 37.1981C338.799 36.967 338.426 36.8515 337.983 36.8515C337.525 36.8515 337.142 36.9708 336.835 37.2094C336.529 37.4481 336.297 37.7776 336.142 38.1981C335.987 38.6185 335.909 39.0996 335.909 39.6412C335.909 40.1867 335.987 40.6734 336.142 41.1015C336.301 41.5257 336.534 41.8609 336.841 42.1072C337.152 42.3496 337.532 42.4708 337.983 42.4708Z" fill="white"/>
<rect x="20.48" y="82.0049" width="343.04" height="288" rx="5"/>
<path d="M29.728 396.085C29.44 395.53 29.04 395.114 28.528 394.837C28.016 394.549 27.424 394.405 26.752 394.405C26.016 394.405 25.36 394.57 24.784 394.901C24.208 395.232 23.7547 395.701 23.424 396.309C23.104 396.917 22.944 397.621 22.944 398.421C22.944 399.221 23.104 399.93 23.424 400.549C23.7547 401.157 24.208 401.626 24.784 401.957C25.36 402.288 26.016 402.453 26.752 402.453C27.744 402.453 28.5493 402.176 29.168 401.621C29.7867 401.066 30.1653 400.314 30.304 399.365H26.128V397.909H32.256V399.333C32.1387 400.197 31.8293 400.992 31.328 401.717C30.8373 402.442 30.192 403.024 29.392 403.461C28.6027 403.888 27.7227 404.101 26.752 404.101C25.7067 404.101 24.752 403.861 23.888 403.381C23.024 402.89 22.336 402.213 21.824 401.349C21.3227 400.485 21.072 399.509 21.072 398.421C21.072 397.333 21.3227 396.357 21.824 395.493C22.336 394.629 23.024 393.957 23.888 393.477C24.7627 392.986 25.7173 392.741 26.752 392.741C27.936 392.741 28.9867 393.034 29.904 393.621C30.832 394.197 31.504 395.018 31.92 396.085H29.728ZM37.879 404.149C37.047 404.149 36.295 403.962 35.623 403.589C34.951 403.205 34.423 402.672 34.039 401.989C33.655 401.296 33.463 400.496 33.463 399.589C33.463 398.693 33.6603 397.898 34.055 397.205C34.4497 396.512 34.9883 395.978 35.671 395.605C36.3537 395.232 37.1163 395.045 37.959 395.045C38.8017 395.045 39.5643 395.232 40.247 395.605C40.9297 395.978 41.4683 396.512 41.863 397.205C42.2577 397.898 42.455 398.693 42.455 399.589C42.455 400.485 42.2523 401.28 41.847 401.973C41.4417 402.666 40.887 403.205 40.183 403.589C39.4897 403.962 38.7217 404.149 37.879 404.149ZM37.879 402.565C38.3483 402.565 38.7857 402.453 39.191 402.229C39.607 402.005 39.943 401.669 40.199 401.221C40.455 400.773 40.583 400.229 40.583 399.589C40.583 398.949 40.4603 398.41 40.215 397.973C39.9697 397.525 39.6443 397.189 39.239 396.965C38.8337 396.741 38.3963 396.629 37.927 396.629C37.4577 396.629 37.0203 396.741 36.615 396.965C36.2203 397.189 35.9057 397.525 35.671 397.973C35.4363 398.41 35.319 398.949 35.319 399.589C35.319 400.538 35.559 401.274 36.039 401.797C36.5297 402.309 37.143 402.565 37.879 402.565ZM46.0821 392.165V404.005H44.2581V392.165H46.0821ZM47.8689 399.557C47.8689 398.672 48.0502 397.888 48.4129 397.205C48.7862 396.522 49.2876 395.994 49.9169 395.621C50.5569 395.237 51.2662 395.045 52.0449 395.045C52.6209 395.045 53.1862 395.173 53.7409 395.429C54.3062 395.674 54.7542 396.005 55.0849 396.421V392.165H56.9249V404.005H55.0849V402.677C54.7862 403.104 54.3702 403.456 53.8369 403.733C53.3142 404.01 52.7116 404.149 52.0289 404.149C51.2609 404.149 50.5569 403.957 49.9169 403.573C49.2876 403.178 48.7862 402.634 48.4129 401.941C48.0502 401.237 47.8689 400.442 47.8689 399.557ZM55.0849 399.589C55.0849 398.981 54.9569 398.453 54.7009 398.005C54.4556 397.557 54.1302 397.216 53.7249 396.981C53.3196 396.746 52.8822 396.629 52.4129 396.629C51.9436 396.629 51.5062 396.746 51.1009 396.981C50.6956 397.205 50.3649 397.541 50.1089 397.989C49.8636 398.426 49.7409 398.949 49.7409 399.557C49.7409 400.165 49.8636 400.698 50.1089 401.157C50.3649 401.616 50.6956 401.968 51.1009 402.213C51.5169 402.448 51.9542 402.565 52.4129 402.565C52.8822 402.565 53.3196 402.448 53.7249 402.213C54.1302 401.978 54.4556 401.637 54.7009 401.189C54.9569 400.73 55.0849 400.197 55.0849 399.589ZM67.4006 399.381C67.4006 399.712 67.3793 400.01 67.3366 400.277H60.6006C60.654 400.981 60.9153 401.546 61.3846 401.973C61.854 402.4 62.43 402.613 63.1126 402.613C64.094 402.613 64.7873 402.202 65.1926 401.381H67.1606C66.894 402.192 66.4086 402.858 65.7046 403.381C65.0113 403.893 64.1473 404.149 63.1126 404.149C62.27 404.149 61.5126 403.962 60.8406 403.589C60.1793 403.205 59.6566 402.672 59.2726 401.989C58.8993 401.296 58.7126 400.496 58.7126 399.589C58.7126 398.682 58.894 397.888 59.2566 397.205C59.63 396.512 60.1473 395.978 60.8086 395.605C61.4806 395.232 62.2486 395.045 63.1126 395.045C63.9446 395.045 64.686 395.226 65.3366 395.589C65.9873 395.952 66.494 396.464 66.8566 397.125C67.2193 397.776 67.4006 398.528 67.4006 399.381ZM65.4966 398.805C65.486 398.133 65.246 397.594 64.7766 397.189C64.3073 396.784 63.726 396.581 63.0326 396.581C62.4033 396.581 61.8646 396.784 61.4166 397.189C60.9686 397.584 60.702 398.122 60.6166 398.805H65.4966ZM73.6436 395.045C74.337 395.045 74.9556 395.189 75.4996 395.477C76.0543 395.765 76.4863 396.192 76.7956 396.757C77.105 397.322 77.2596 398.005 77.2596 398.805V404.005H75.4516V399.077C75.4516 398.288 75.2543 397.685 74.8596 397.269C74.465 396.842 73.9263 396.629 73.2436 396.629C72.561 396.629 72.017 396.842 71.6116 397.269C71.217 397.685 71.0196 398.288 71.0196 399.077V404.005H69.1956V395.189H71.0196V396.197C71.3183 395.834 71.697 395.552 72.1556 395.349C72.625 395.146 73.121 395.045 73.6436 395.045ZM92.6225 392.885V404.005H90.7985V399.141H85.5665V404.005H83.7425V392.885H85.5665V397.653H90.7985V392.885H92.6225ZM98.8478 404.149C98.0158 404.149 97.2638 403.962 96.5918 403.589C95.9198 403.205 95.3918 402.672 95.0078 401.989C94.6238 401.296 94.4318 400.496 94.4318 399.589C94.4318 398.693 94.6291 397.898 95.0238 397.205C95.4184 396.512 95.9571 395.978 96.6398 395.605C97.3224 395.232 98.0851 395.045 98.9278 395.045C99.7704 395.045 100.533 395.232 101.216 395.605C101.898 395.978 102.437 396.512 102.832 397.205C103.226 397.898 103.424 398.693 103.424 399.589C103.424 400.485 103.221 401.28 102.816 401.973C102.41 402.666 101.856 403.205 101.152 403.589C100.458 403.962 99.6904 404.149 98.8478 404.149ZM98.8478 402.565C99.3171 402.565 99.7544 402.453 100.16 402.229C100.576 402.005 100.912 401.669 101.168 401.221C101.424 400.773 101.552 400.229 101.552 399.589C101.552 398.949 101.429 398.41 101.184 397.973C100.938 397.525 100.613 397.189 100.208 396.965C99.8024 396.741 99.3651 396.629 98.8958 396.629C98.4264 396.629 97.9891 396.741 97.5838 396.965C97.1891 397.189 96.8744 397.525 96.6398 397.973C96.4051 398.41 96.2878 398.949 96.2878 399.589C96.2878 400.538 96.5278 401.274 97.0078 401.797C97.4984 402.309 98.1118 402.565 98.8478 402.565ZM113.211 395.189V404.005H111.387V402.965C111.099 403.328 110.72 403.616 110.251 403.829C109.792 404.032 109.302 404.133 108.779 404.133C108.086 404.133 107.462 403.989 106.907 403.701C106.363 403.413 105.931 402.986 105.611 402.421C105.302 401.856 105.147 401.173 105.147 400.373V395.189H106.955V400.101C106.955 400.89 107.152 401.498 107.547 401.925C107.942 402.341 108.48 402.549 109.163 402.549C109.846 402.549 110.384 402.341 110.779 401.925C111.184 401.498 111.387 400.89 111.387 400.101V395.189H113.211ZM117.442 396.469C117.708 396.021 118.06 395.674 118.498 395.429C118.946 395.173 119.474 395.045 120.082 395.045V396.933H119.618C118.903 396.933 118.359 397.114 117.986 397.477C117.623 397.84 117.442 398.469 117.442 399.365V404.005H115.618V395.189H117.442V396.469Z" fill="white"/>
<circle cx="32.48" cy="430.005" r="12" fill="#D9D9D9"/>
<circle cx="32.48" cy="430.005" r="12"/>
<path d="M58.836 425.275V432.289C58.836 433.157 58.57 433.843 58.038 434.347C57.5153 434.851 56.8247 435.103 55.966 435.103C55.1073 435.103 54.412 434.851 53.88 434.347C53.3573 433.843 53.096 433.157 53.096 432.289H54.706C54.7153 432.718 54.8227 433.059 55.028 433.311C55.2427 433.563 55.5553 433.689 55.966 433.689C56.3767 433.689 56.6893 433.563 56.904 433.311C57.1187 433.05 57.226 432.709 57.226 432.289V425.275H58.836ZM64.7784 435.131C64.0504 435.131 63.3924 434.968 62.8044 434.641C62.2164 434.305 61.7544 433.838 61.4184 433.241C61.0824 432.634 60.9144 431.934 60.9144 431.141C60.9144 430.357 61.087 429.662 61.4324 429.055C61.7777 428.448 62.249 427.982 62.8464 427.655C63.4437 427.328 64.111 427.165 64.8484 427.165C65.5857 427.165 66.253 427.328 66.8504 427.655C67.4477 427.982 67.919 428.448 68.2644 429.055C68.6097 429.662 68.7824 430.357 68.7824 431.141C68.7824 431.925 68.605 432.62 68.2504 433.227C67.8957 433.834 67.4104 434.305 66.7944 434.641C66.1877 434.968 65.5157 435.131 64.7784 435.131ZM64.7784 433.745C65.189 433.745 65.5717 433.647 65.9264 433.451C66.2904 433.255 66.5844 432.961 66.8084 432.569C67.0324 432.177 67.1444 431.701 67.1444 431.141C67.1444 430.581 67.037 430.11 66.8224 429.727C66.6077 429.335 66.323 429.041 65.9684 428.845C65.6137 428.649 65.231 428.551 64.8204 428.551C64.4097 428.551 64.027 428.649 63.6724 428.845C63.327 429.041 63.0517 429.335 62.8464 429.727C62.641 430.11 62.5384 430.581 62.5384 431.141C62.5384 431.972 62.7484 432.616 63.1684 433.073C63.5977 433.521 64.1344 433.745 64.7784 433.745ZM74.3501 427.165C74.9381 427.165 75.4608 427.291 75.9181 427.543C76.3848 427.795 76.7488 428.168 77.0101 428.663C77.2808 429.158 77.4161 429.755 77.4161 430.455V435.005H75.8341V430.693C75.8341 430.002 75.6614 429.475 75.3161 429.111C74.9708 428.738 74.4994 428.551 73.9021 428.551C73.3048 428.551 72.8288 428.738 72.4741 429.111C72.1288 429.475 71.9561 430.002 71.9561 430.693V435.005H70.3601V424.645H71.9561V428.187C72.2268 427.86 72.5674 427.608 72.9781 427.431C73.3981 427.254 73.8554 427.165 74.3501 427.165ZM83.3439 427.165C83.9506 427.165 84.4919 427.291 84.9679 427.543C85.4532 427.795 85.8312 428.168 86.1019 428.663C86.3726 429.158 86.5079 429.755 86.5079 430.455V435.005H84.9259V430.693C84.9259 430.002 84.7532 429.475 84.4079 429.111C84.0626 428.738 83.5912 428.551 82.9939 428.551C82.3966 428.551 81.9206 428.738 81.5659 429.111C81.2206 429.475 81.0479 430.002 81.0479 430.693V435.005H79.4519V427.291H81.0479V428.173C81.3092 427.856 81.6406 427.608 82.0419 427.431C82.4526 427.254 82.8866 427.165 83.3439 427.165ZM95.3584 425.275C96.3944 425.275 97.2997 425.476 98.0744 425.877C98.8584 426.269 99.4604 426.838 99.8804 427.585C100.31 428.322 100.524 429.186 100.524 430.175C100.524 431.164 100.31 432.023 99.8804 432.751C99.4604 433.479 98.8584 434.039 98.0744 434.431C97.2997 434.814 96.3944 435.005 95.3584 435.005H92.1804V425.275H95.3584ZM95.3584 433.703C96.4971 433.703 97.3697 433.395 97.9764 432.779C98.5831 432.163 98.8864 431.295 98.8864 430.175C98.8864 429.046 98.5831 428.164 97.9764 427.529C97.3697 426.894 96.4971 426.577 95.3584 426.577H93.7764V433.703H95.3584ZM105.452 435.131C104.724 435.131 104.066 434.968 103.478 434.641C102.89 434.305 102.428 433.838 102.092 433.241C101.756 432.634 101.588 431.934 101.588 431.141C101.588 430.357 101.761 429.662 102.106 429.055C102.452 428.448 102.923 427.982 103.52 427.655C104.118 427.328 104.785 427.165 105.522 427.165C106.26 427.165 106.927 427.328 107.524 427.655C108.122 427.982 108.593 428.448 108.938 429.055C109.284 429.662 109.456 430.357 109.456 431.141C109.456 431.925 109.279 432.62 108.924 433.227C108.57 433.834 108.084 434.305 107.468 434.641C106.862 434.968 106.19 435.131 105.452 435.131ZM105.452 433.745C105.863 433.745 106.246 433.647 106.6 433.451C106.964 433.255 107.258 432.961 107.482 432.569C107.706 432.177 107.818 431.701 107.818 431.141C107.818 430.581 107.711 430.11 107.496 429.727C107.282 429.335 106.997 429.041 106.642 428.845C106.288 428.649 105.905 428.551 105.494 428.551C105.084 428.551 104.701 428.649 104.346 428.845C104.001 429.041 103.726 429.335 103.52 429.727C103.315 430.11 103.212 430.581 103.212 431.141C103.212 431.972 103.422 432.616 103.842 433.073C104.272 433.521 104.808 433.745 105.452 433.745ZM118.104 430.959C118.104 431.248 118.085 431.51 118.048 431.743H112.154C112.201 432.359 112.429 432.854 112.84 433.227C113.251 433.6 113.755 433.787 114.352 433.787C115.211 433.787 115.817 433.428 116.172 432.709H117.894C117.661 433.418 117.236 434.002 116.62 434.459C116.013 434.907 115.257 435.131 114.352 435.131C113.615 435.131 112.952 434.968 112.364 434.641C111.785 434.305 111.328 433.838 110.992 433.241C110.665 432.634 110.502 431.934 110.502 431.141C110.502 430.348 110.661 429.652 110.978 429.055C111.305 428.448 111.757 427.982 112.336 427.655C112.924 427.328 113.596 427.165 114.352 427.165C115.08 427.165 115.729 427.324 116.298 427.641C116.867 427.958 117.311 428.406 117.628 428.985C117.945 429.554 118.104 430.212 118.104 430.959ZM116.438 430.455C116.429 429.867 116.219 429.396 115.808 429.041C115.397 428.686 114.889 428.509 114.282 428.509C113.731 428.509 113.26 428.686 112.868 429.041C112.476 429.386 112.243 429.858 112.168 430.455H116.438Z" fill="#789EAC"/>
<circle cx="215.48" cy="413.489" r="16" fill="#D9D9D9"/>
<circle cx="215.48" cy="413.489" r="16"/>
<circle cx="215.48" cy="413.489" r="15.5" stroke="url(#paint1_linear_1_202)" stroke-opacity="0.7"/>
<g filter="url(#filter2_d_1_202)">
<ellipse cx="235.48" cy="414.005" rx="16" ry="16.5161" fill="#D9D9D9"/>
<ellipse cx="235.48" cy="414.005" rx="16" ry="16.5161"/>
<path d="M250.98 414.005C250.98 422.865 244.026 430.021 235.48 430.021C226.934 430.021 219.98 422.865 219.98 414.005C219.98 405.144 226.934 397.989 235.48 397.989C244.026 397.989 250.98 405.144 250.98 414.005Z" stroke="url(#paint2_linear_1_202)" stroke-opacity="0.7"/>
</g>
<g filter="url(#filter3_d_1_202)">
<circle cx="255.48" cy="413.489" r="16" fill="#D9D9D9"/>
<circle cx="255.48" cy="413.489" r="16"/>
<circle cx="255.48" cy="413.489" r="15.5" stroke="url(#paint3_linear_1_202)" stroke-opacity="0.7"/>
</g>
<g filter="url(#filter4_d_1_202)">
<circle cx="275.48" cy="413.489" r="16" fill="#D9D9D9"/>
<circle cx="275.48" cy="413.489" r="16"/>
<circle cx="275.48" cy="413.489" r="15.5" stroke="url(#paint4_linear_1_202)" stroke-opacity="0.7"/>
</g>
</g>
<defs>
<filter id="filter0_b_1_202" x="-10" y="-10" width="404" height="480" filterUnits="userSpaceOnUse" color-interpolation-filters="sRGB">
<feFlood flood-opacity="0" result="BackgroundImageFix"/>
<feGaussianBlur in="BackgroundImageFix" stdDeviation="5"/>
<feComposite in2="SourceAlpha" operator="in" result="effect1_backgroundBlur_1_202"/>
<feBlend mode="normal" in="SourceGraphic" in2="effect1_backgroundBlur_1_202" result="shape"/>
</filter>
<filter id="filter1_b_1_202" x="-10" y="-10" width="404" height="480" filterUnits="userSpaceOnUse" color-interpolation-filters="sRGB">
<feFlood flood-opacity="0" result="BackgroundImageFix"/>
<feGaussianBlur in="BackgroundImageFix" stdDeviation="5"/>
<feComposite in2="SourceAlpha" operator="in" result="effect1_backgroundBlur_1_202"/>
<feBlend mode="normal" in="SourceGraphic" in2="effect1_backgroundBlur_1_202" result="shape"/>
</filter>
<filter id="filter2_d_1_202" x="210.48" y="395.489" width="44" height="45.0322" filterUnits="userSpaceOnUse" color-interpolation-filters="sRGB">
<feFlood flood-opacity="0" result="BackgroundImageFix"/>
<feColorMatrix in="SourceAlpha" type="matrix" values="0 0 0 0 0 0 0 0 0 0 0 0 0 0 0 0 0 0 127 0" result="hardAlpha"/>
<feOffset dx="-3" dy="4"/>
<feGaussianBlur stdDeviation="3"/>
<feComposite in2="hardAlpha" operator="out"/>
<feColorMatrix type="matrix" values="0 0 0 0 0 0 0 0 0 0 0 0 0 0 0 0 0 0 0.25 0"/>
<feBlend mode="normal" in2="BackgroundImageFix" result="effect1_dropShadow_1_202"/>
<feBlend mode="normal" in="SourceGraphic" in2="effect1_dropShadow_1_202" result="shape"/>
</filter>
<filter id="filter3_d_1_202" x="230.48" y="395.489" width="44" height="44" filterUnits="userSpaceOnUse" color-interpolation-filters="sRGB">
<feFlood flood-opacity="0" result="BackgroundImageFix"/>
<feColorMatrix in="SourceAlpha" type="matrix" values="0 0 0 0 0 0 0 0 0 0 0 0 0 0 0 0 0 0 127 0" result="hardAlpha"/>
<feOffset dx="-3" dy="4"/>
<feGaussianBlur stdDeviation="3"/>
<feComposite in2="hardAlpha" operator="out"/>
<feColorMatrix type="matrix" values="0 0 0 0 0 0 0 0 0 0 0 0 0 0 0 0 0 0 0.25 0"/>
<feBlend mode="normal" in2="BackgroundImageFix" result="effect1_dropShadow_1_202"/>
<feBlend mode="normal" in="SourceGraphic" in2="effect1_dropShadow_1_202" result="shape"/>
</filter>
<filter id="filter4_d_1_202" x="250.48" y="395.489" width="44" height="44" filterUnits="userSpaceOnUse" color-interpolation-filters="sRGB">
<feFlood flood-opacity="0" result="BackgroundImageFix"/>
<feColorMatrix in="SourceAlpha" type="matrix" values="0 0 0 0 0 0 0 0 0 0 0 0 0 0 0 0 0 0 127 0" result="hardAlpha"/>
<feOffset dx="-3" dy="4"/>
<feGaussianBlur stdDeviation="3"/>
<feComposite in2="hardAlpha" operator="out"/>
<feColorMatrix type="matrix" values="0 0 0 0 0 0 0 0 0 0 0 0 0 0 0 0 0 0 0.25 0"/>
<feBlend mode="normal" in2="BackgroundImageFix" result="effect1_dropShadow_1_202"/>
<feBlend mode="normal" in="SourceGraphic" in2="effect1_dropShadow_1_202" result="shape"/>
</filter>
<linearGradient id="paint0_linear_1_202" x1="341.76" y1="416.699" x2="55.6063" y2="-35.2105" gradientUnits="userSpaceOnUse">
<stop stop-color="#15BFFD"/>
<stop offset="1" stop-color="#9C37FD"/>
</linearGradient>
<linearGradient id="paint1_linear_1_202" x1="203" y1="400.501" x2="221.196" y2="434.925" gradientUnits="userSpaceOnUse">
<stop stop-color="#15BFFD"/>
<stop offset="1" stop-color="#9C37FD"/>
</linearGradient>
<linearGradient id="paint2_linear_1_202" x1="223" y1="400.598" x2="242.115" y2="435.631" gradientUnits="userSpaceOnUse">
<stop stop-color="#15BFFD"/>
<stop offset="1" stop-color="#9C37FD"/>
</linearGradient>
<linearGradient id="paint3_linear_1_202" x1="243" y1="400.501" x2="261.196" y2="434.925" gradientUnits="userSpaceOnUse">
<stop stop-color="#15BFFD"/>
<stop offset="1" stop-color="#9C37FD"/>
</linearGradient>
<linearGradient id="paint4_linear_1_202" x1="263" y1="400.501" x2="281.196" y2="434.925" gradientUnits="userSpaceOnUse">
<stop stop-color="#15BFFD"/>
<stop offset="1" stop-color="#9C37FD"/>
</linearGradient>
<clipPath id="clip0_1_202">
<rect width="16" height="16" fill="white" transform="translate(20.48 46.0049)"/>
</clipPath>
</defs>
</svg>
