<svg width="384" height="96" viewBox="0 0 384 96" fill="none" xmlns="http://www.w3.org/2000/svg">
<path d="M384 10C384 4.47715 379.523 0 374 0H10C4.47715 0 0 4.47715 0 10V86C0 91.5229 4.47715 96 10 96H331.226C333.339 96 335.397 95.3309 337.106 94.0887L379.88 62.995C382.468 61.1134 384 58.1065 384 54.9063V10Z" fill="white" fill-opacity="0.05"/>
<path d="M374 0.5C379.247 0.5 383.5 4.7533 383.5 10V54.9063C383.5 57.9465 382.045 60.803 379.586 62.5906L336.812 93.6842C335.188 94.8644 333.233 95.5 331.226 95.5H10C4.75329 95.5 0.5 91.2467 0.5 86V10C0.5 4.7533 4.75329 0.5 10 0.5H374Z" stroke="url(#paint0_linear_1_383)" stroke-opacity="0.7"/>
<circle cx="53" cy="47" r="28" fill="#D9D9D9"/>
<circle cx="53" cy="47" r="28"/>
<path d="M108.72 40V38.06H100.16V34.22H108.42V32.3H100.16V28.54H108.72V26.6H98V40H108.72ZM112.562 40V35.08C112.562 32.88 113.302 31.8 115.442 31.8C117.362 31.8 118.122 32.64 118.122 34.6V40H120.262V35.08C120.262 32.88 121.022 31.8 123.142 31.8C125.062 31.8 125.842 32.64 125.842 34.6V40H127.982V34.02C127.982 31.62 126.682 29.86 124.102 29.86C121.582 29.86 120.462 31.44 120.202 33.14H120.082C119.802 31.24 118.582 29.86 116.322 29.86C113.842 29.86 112.762 31.4 112.502 33.06H112.382V30.06H110.402V40H112.562ZM134.914 40.2C137.874 40.2 139.954 38.74 139.954 36.62V36.44H137.794V36.6C137.794 37.78 136.934 38.46 134.854 38.46C132.554 38.46 131.614 37.44 131.534 35.52H139.974C140.034 35.22 140.054 34.94 140.054 34.58C140.054 31.56 137.954 29.86 134.874 29.86C131.634 29.86 129.514 31.94 129.514 35.04C129.514 38.36 131.654 40.2 134.914 40.2ZM134.834 31.56C136.954 31.56 138.014 32.44 138.014 34.28V34.32H131.554C131.674 32.54 132.634 31.56 134.834 31.56ZM143.832 40V34.42C143.832 32.64 144.532 31.7 146.232 31.7C147.712 31.7 148.312 32.36 148.312 33.78V34.66H150.452V33.36C150.452 31.48 149.472 29.86 147.212 29.86C145.172 29.86 144.092 31.14 143.792 32.74H143.652V30.06H141.672V40H143.832ZM156.509 40.2C159.309 40.2 161.149 39.1 161.149 37.24C161.149 35.6 160.069 34.8 157.709 34.5L155.409 34.18C153.909 33.98 153.509 33.7 153.509 32.92C153.509 31.98 154.149 31.58 155.969 31.58C158.169 31.58 158.769 32.2 158.769 33.38V33.5H160.909V33.44C160.909 31.08 159.069 29.86 156.029 29.86C152.969 29.86 151.389 31.1 151.389 32.84C151.389 34.5 152.529 35.3 154.409 35.54L157.129 35.9C158.549 36.1 159.029 36.36 159.029 37.18C159.029 38.06 158.449 38.46 156.509 38.46C154.429 38.46 153.649 38.04 153.649 36.74V36.58H151.489V36.64C151.489 38.94 153.309 40.2 156.509 40.2ZM167.787 40.2C171.107 40.2 173.327 38.1 173.327 35.04C173.327 31.94 171.107 29.86 167.787 29.86C164.487 29.86 162.267 31.94 162.267 35.04C162.267 38.1 164.487 40.2 167.787 40.2ZM167.787 38.28C165.387 38.28 164.387 37.14 164.387 35.04C164.387 32.92 165.387 31.76 167.787 31.76C170.207 31.76 171.207 32.92 171.207 35.04C171.207 37.14 170.207 38.28 167.787 38.28ZM177.055 40V35.08C177.055 32.92 178.035 31.8 180.215 31.8C182.275 31.8 183.115 32.74 183.115 34.6V40H185.275V34.02C185.275 31.72 183.915 29.86 181.155 29.86C178.635 29.86 177.315 31.46 177.015 33.14H176.875V30.06H174.895V40H177.055ZM192.777 40V35.96H197.177C200.157 35.96 202.197 34.24 202.197 31.28C202.197 28.3 200.157 26.6 197.177 26.6H190.617V40H192.777ZM196.977 28.54C198.997 28.54 200.037 29.3 200.037 31.28C200.037 33.26 198.997 34.02 196.977 34.02H192.777V28.54H196.977ZM205.648 40V35.18C205.648 33.08 206.488 31.8 208.848 31.8C210.908 31.8 211.808 32.6 211.808 34.6V40H213.948V34.08C213.948 31.66 212.608 29.86 209.868 29.86C207.328 29.86 206.108 31.42 205.768 33.1H205.648V26.6H203.488V40H205.648ZM218.051 28.9V26.6H215.891V28.9H218.051ZM218.051 40V30.06H215.891V40H218.051ZM222.211 40V26.6H220.051V40H222.211ZM226.371 28.9V26.6H224.211V28.9H226.371ZM226.371 40V30.06H224.211V40H226.371ZM230.531 43.4V37.2H230.611C231.011 39.02 232.451 40.2 234.691 40.2C237.791 40.2 239.491 38.12 239.491 35.04C239.491 31.96 237.751 29.86 234.671 29.86C232.331 29.86 230.931 30.98 230.531 32.82H230.351V30.06H228.371V43.4H230.531ZM230.531 35.2V35.02C230.531 32.88 231.771 31.84 233.991 31.84C236.071 31.84 237.331 32.64 237.331 35.04C237.331 37.42 236.091 38.24 233.951 38.24C231.831 38.24 230.531 37.24 230.531 35.2ZM245.688 40.2C248.488 40.2 250.328 39.1 250.328 37.24C250.328 35.6 249.248 34.8 246.888 34.5L244.588 34.18C243.088 33.98 242.688 33.7 242.688 32.92C242.688 31.98 243.328 31.58 245.148 31.58C247.348 31.58 247.948 32.2 247.948 33.38V33.5H250.088V33.44C250.088 31.08 248.248 29.86 245.208 29.86C242.148 29.86 240.568 31.1 240.568 32.84C240.568 34.5 241.708 35.3 243.588 35.54L246.308 35.9C247.728 36.1 248.208 36.36 248.208 37.18C248.208 38.06 247.628 38.46 245.688 38.46C243.608 38.46 242.828 38.04 242.828 36.74V36.58H240.668V36.64C240.668 38.94 242.488 40.2 245.688 40.2Z" fill="white"/>
<g clip-path="url(#clip0_1_383)">
<path d="M105.006 69.198L100.565 67.03L105.002 73L105.668 72.103V68.8735L105.006 69.198Z" fill="#15BFFD"/>
<path d="M105.002 57L99.9062 66.1429H110.097L105.002 57Z" fill="#15BFFD"/>
<path d="M110.097 66.1565L105.002 57V66.1565H110.097Z" fill="#1286B0"/>
<path d="M103.46 62.078H104.46V63.078H103.46V62.078Z" fill="#F7F8FA"/>
<path d="M105.002 63.66L104.982 63.6505L99.9067 66.1505H99.9113L104.986 68.6505L105.006 68.641L105.668 68.317V63.9865L105.002 63.66Z" fill="#147EA5"/>
<path d="M103.46 60.1865H104.46V61.1865H103.46V60.1865Z" fill="#F7F8FA"/>
<path d="M105.006 69.198L105.002 73L109.441 67.026L105.006 69.198Z" fill="#1286B0"/>
<path d="M110.088 66.1505L105.002 63.66L104.982 63.6505L104.986 68.6505L105.006 68.641L110.092 66.1505H110.088Z" fill="#0E526A"/>
</g>
<path d="M123.285 70.16C126.405 70.16 128.261 69.072 128.261 66.992C128.261 65.424 127.237 64.624 125.669 64.4V64.224C127.061 64.048 127.797 63.216 127.797 61.984C127.797 60.096 126.213 59.12 123.349 59.12C119.861 59.12 118.197 60.656 118.197 62.912V62.992H120.741V62.912C120.741 61.824 121.221 61.424 123.141 61.424C124.965 61.424 125.413 61.744 125.413 62.496C125.413 63.168 124.997 63.504 124.069 63.504H121.205V65.472H124.293C125.301 65.472 125.813 65.808 125.813 66.608C125.813 67.536 125.189 67.856 123.173 67.856C121.045 67.856 120.741 67.456 120.741 66.368V66.112H118.197V66.368C118.197 68.736 119.781 70.16 123.285 70.16ZM132.099 70V67.2H129.011V70H132.099ZM142.466 70V67.84H138.274L135.474 68.112C135.474 67.264 135.97 66.96 137.01 66.64L139.346 66C141.25 65.472 142.498 64.528 142.498 62.624C142.498 60.592 141.186 59.12 137.954 59.12C134.386 59.12 132.962 61.008 132.962 63.088V63.296H135.314V63.088C135.314 61.904 135.906 61.312 137.874 61.312C139.634 61.312 140.082 61.776 140.082 62.592C140.082 63.296 139.73 63.616 138.77 63.952L136.018 64.848C133.762 65.6 132.946 66.576 132.946 68.464V70H142.466ZM155.056 70V67.84H148.384V65.68H154.816V63.536H148.384V61.44H155.056V59.28H145.984V70H155.056ZM162.108 70V61.44H166.092V59.28H155.724V61.44H159.708V70H162.108ZM169.353 70V65.696H174.953V70H177.353V59.28H174.953V63.536H169.353V59.28H166.953V70H169.353Z" fill="white"/>
<path d="M299.022 55V40.4545H308.042V42.3438H301.216V46.7756H307.395V48.6577H301.216V55H299.022ZM314.365 55.2202C313.342 55.2202 312.449 54.9858 311.687 54.517C310.925 54.0483 310.333 53.3925 309.911 52.5497C309.49 51.7069 309.279 50.7221 309.279 49.5952C309.279 48.4635 309.49 47.474 309.911 46.6264C310.333 45.7789 310.925 45.1207 311.687 44.652C312.449 44.1832 313.342 43.9489 314.365 43.9489C315.387 43.9489 316.28 44.1832 317.042 44.652C317.804 45.1207 318.396 45.7789 318.818 46.6264C319.239 47.474 319.45 48.4635 319.45 49.5952C319.45 50.7221 319.239 51.7069 318.818 52.5497C318.396 53.3925 317.804 54.0483 317.042 54.517C316.28 54.9858 315.387 55.2202 314.365 55.2202ZM314.372 53.4375C315.035 53.4375 315.584 53.2623 316.019 52.9119C316.455 52.5616 316.777 52.0952 316.985 51.5128C317.198 50.9304 317.305 50.2888 317.305 49.5881C317.305 48.892 317.198 48.2528 316.985 47.6705C316.777 47.0833 316.455 46.6122 316.019 46.2571C315.584 45.902 315.035 45.7244 314.372 45.7244C313.704 45.7244 313.15 45.902 312.71 46.2571C312.274 46.6122 311.95 47.0833 311.737 47.6705C311.528 48.2528 311.424 48.892 311.424 49.5881C311.424 50.2888 311.528 50.9304 311.737 51.5128C311.95 52.0952 312.274 52.5616 312.71 52.9119C313.15 53.2623 313.704 53.4375 314.372 53.4375ZM323.944 40.4545V55H321.82V40.4545H323.944ZM328.924 40.4545V55H326.801V40.4545H328.924ZM336.376 55.2202C335.354 55.2202 334.461 54.9858 333.699 54.517C332.936 54.0483 332.345 53.3925 331.923 52.5497C331.502 51.7069 331.291 50.7221 331.291 49.5952C331.291 48.4635 331.502 47.474 331.923 46.6264C332.345 45.7789 332.936 45.1207 333.699 44.652C334.461 44.1832 335.354 43.9489 336.376 43.9489C337.399 43.9489 338.291 44.1832 339.054 44.652C339.816 45.1207 340.408 45.7789 340.829 46.6264C341.251 47.474 341.461 48.4635 341.461 49.5952C341.461 50.7221 341.251 51.7069 340.829 52.5497C340.408 53.3925 339.816 54.0483 339.054 54.517C338.291 54.9858 337.399 55.2202 336.376 55.2202ZM336.383 53.4375C337.046 53.4375 337.595 53.2623 338.031 52.9119C338.467 52.5616 338.789 52.0952 338.997 51.5128C339.21 50.9304 339.317 50.2888 339.317 49.5881C339.317 48.892 339.21 48.2528 338.997 47.6705C338.789 47.0833 338.467 46.6122 338.031 46.2571C337.595 45.902 337.046 45.7244 336.383 45.7244C335.716 45.7244 335.162 45.902 334.721 46.2571C334.286 46.6122 333.961 47.0833 333.748 47.6705C333.54 48.2528 333.436 48.892 333.436 49.5881C333.436 50.2888 333.54 50.9304 333.748 51.5128C333.961 52.0952 334.286 52.5616 334.721 52.9119C335.162 53.2623 335.716 53.4375 336.383 53.4375ZM345.865 55L342.655 44.0909H344.849L346.987 52.1023H347.094L349.238 44.0909H351.433L353.564 52.0668H353.67L355.794 44.0909H357.988L354.785 55H352.619L350.403 47.1236H350.24L348.024 55H345.865Z" fill="#15BFFD"/>
<path d="M297.424 58.9773H358.571V60.3409H297.424V58.9773Z" fill="#15BFFD"/>
<defs>
<linearGradient id="paint0_linear_1_383" x1="42.24" y1="9.03667" x2="59.4006" y2="138.895" gradientUnits="userSpaceOnUse">
<stop stop-color="#15BFFD"/>
<stop offset="1" stop-color="#9C37FD"/>
</linearGradient>
<clipPath id="clip0_1_383">
<rect width="16" height="16" fill="white" transform="translate(97 57)"/>
</clipPath>
</defs>
</svg>
