<svg width="64" height="6" viewBox="0 0 64 6" fill="none" xmlns="http://www.w3.org/2000/svg">
<path id="Line 100" d="M64 3L59 0.113248L59 5.88675L64 3ZM59.6364 2.5L56.7273 2.5L56.7273 3.5L59.6364 3.5L59.6364 2.5ZM53.8182 2.5L50.9091 2.5L50.9091 3.5L53.8182 3.5L53.8182 2.5ZM48 2.5L45.0909 2.5L45.0909 3.5L48 3.5L48 2.5ZM42.1818 2.5L39.2727 2.5L39.2727 3.5L42.1818 3.5L42.1818 2.5ZM36.3636 2.5L33.4545 2.5L33.4545 3.5L36.3636 3.5L36.3636 2.5ZM30.5454 2.5L27.6364 2.5L27.6364 3.5L30.5454 3.5L30.5454 2.5ZM24.7273 2.5L21.8182 2.5L21.8182 3.5L24.7273 3.5L24.7273 2.5ZM18.9091 2.5L16 2.5L16 3.5L18.9091 3.5L18.9091 2.5ZM13.0909 2.5L10.1818 2.5L10.1818 3.5L13.0909 3.5L13.0909 2.5ZM7.27271 2.5L4.36362 2.49999L4.36362 3.49999L7.27271 3.5L7.27271 2.5ZM1.45453 2.49999L4.37114e-08 2.49999L-4.37114e-08 3.49999L1.45453 3.49999L1.45453 2.49999Z" fill="url(#paint0_linear_1_323)" fill-opacity="0.7"/>
<defs>
<linearGradient id="paint0_linear_1_323" x1="56.96" y1="2.90587" x2="56.9486" y2="1.52965" gradientUnits="userSpaceOnUse">
<stop stop-color="#15BFFD"/>
<stop offset="1" stop-color="#9C37FD"/>
</linearGradient>
</defs>
</svg>
